Coordinates
version=1
nRows=16
nColumns=36
inDegrees=yes

Units are S.I. units (second, meters, Newtons, ...)
If the header above contains a line with 'inDegrees', this indicates whether rotational values are in degrees (yes) or radians (no).

endheader
time	pelvis_tilt	pelvis_list	pelvis_rotation	pelvis_tx	pelvis_ty	pelvis_tz	hip_flexion_r	hip_adduction_r	hip_rotation_r	knee_angle_r	knee_angle_r_beta	ankle_angle_r	subtalar_angle_r	mtp_angle_r	hip_flexion_l	hip_adduction_l	hip_rotation_l	knee_angle_l	knee_angle_l_beta	ankle_angle_l	subtalar_angle_l	mtp_angle_l	lumbar_extension	lumbar_bending	lumbar_rotation	arm_flex_r	arm_add_r	arm_rot_r	elbow_flex_r	pro_sup_r	arm_flex_l	arm_add_l	arm_rot_l	elbow_flex_l	pro_sup_l
     15.00000000	      5.42706154	     -4.34738217	     -2.43477405	      0.62124748	      1.02714414	      0.72490457	    -17.07685218	      6.54384445	      4.23023195	      5.50812843	      0.09613498	     19.44670421	      4.63764443	     -7.49999987	     25.22755409	     -5.61799668	      0.37562611	     13.12211798	      0.22902416	     12.35731134	      2.93233058	     -7.49999987	    -23.65764522	      4.56876529	      6.43482835	     18.38892625	    -22.22732805	     13.11933872	     38.83138000	     81.84645104	      6.30458807	     -8.19967786	      8.59573125	     21.46074906	     94.82056313
     15.01666670	      5.51746255	     -4.05098642	     -2.51405507	      0.62455808	      1.02544428	      0.72211928	    -18.54699418	      6.01435068	      4.53100229	      5.21910918	      0.09109064	     20.05896823	      5.04642078	     -7.49999987	     25.41211517	     -5.02423930	      0.41358887	     13.14122538	      0.22935765	     12.27074654	      3.13061039	     -7.49999987	    -23.43088908	      4.15650664	      6.29370463	     17.99177174	    -22.16454576	     12.97538754	     39.09304886	     81.26571527	      5.94144609	     -8.10121639	      8.73010494	     21.20433050	     94.02098835
     15.03333330	      5.54624232	     -3.72483323	     -2.63672978	      0.62703725	      1.02497496	      0.71850452	    -19.83359476	      5.42320305	      4.96904143	      5.07478863	      0.08857177	     20.36897122	      5.07632519	     -7.49999987	     25.61761909	     -4.39996446	      0.25022257	     14.00057878	      0.24435620	     11.83714489	      2.94698126	     -7.49999987	    -23.12681781	      3.65776590	      6.76601724	     16.78209877	    -22.20869019	     11.41784075	     39.86218083	     82.11060266	      6.06633465	     -7.89542401	      9.20285241	     20.48064739	     95.92585140
     15.05000000	      5.52308941	     -3.37354603	     -2.74821139	      0.62956788	      1.02532897	      0.71429060	    -20.90170157	      4.76916527	      5.30260735	      5.20246964	      0.09080022	     20.37656927	      4.91272362	     -7.49999987	     25.75966518	     -3.73866502	     -0.00200742	     15.43457965	      0.26938423	     10.93359721	      2.31816604	     -7.49999987	    -22.73769386	      3.16205550	      6.85799267	     16.26186822	    -22.22272641	     11.67519454	     39.57975869	     80.16975136	      6.03892981	     -7.78847746	     10.02953951	     19.81424556	     93.64305617
     15.06666670	      5.53192788	     -3.00703891	     -2.81301846	      0.63295428	      1.02730649	      0.71168013	    -21.82452586	      4.07712983	      5.58852746	      5.63861511	      0.09841240	     19.87662246	      4.42089260	     -7.49999987	     25.67340666	     -3.07475093	     -0.27521704	     17.12602061	      0.29890545	      9.62585352	      1.45790857	     -7.49999987	    -22.49895545	      2.62428682	      7.04836093	     15.34285306	    -22.23370821	     11.15707860	     39.81207583	     79.33438930	      6.13702944	     -7.86539888	     11.45675769	     19.50492616	     92.85543753
     15.08333330	      5.47449769	     -2.66757999	     -2.90295123	      0.63792027	      1.02982753	      0.71169638	    -22.45173099	      3.37881075	      5.94574828	      6.46698011	      0.11287010	     18.74088339	      3.65535201	     -7.49999987	     25.43034884	     -2.50073815	     -0.48190108	     18.76837995	      0.32757003	      7.96009133	      0.46956032	     -7.49999987	    -22.22862754	      2.01309731	      7.80738406	     13.60684688	    -22.19642616	      9.03443917	     40.25988044	     80.30930641	      6.79224125	     -7.88355607	     13.33441840	     18.77918874	     93.80172952
     15.10000000	      5.39970647	     -2.38552905	     -2.87047823	      0.64349567	      1.03067386	      0.71277509	    -22.80447791	      2.78305318	      6.15338953	      7.73207686	      0.13495020	     17.00758168	      2.80889708	     -7.49999987	     25.05484128	     -1.98644880	     -0.39959847	     20.21617360	      0.35283879	      6.27562473	     -0.38767448	     -7.49999987	    -21.94304184	      1.51950567	      7.76174377	     12.68410541	    -21.90671338	      8.46506217	     39.83794768	     80.34985706	      6.89999476	     -7.99535275	     13.74825669	     18.45181773	     93.34314819
     15.11666670	      5.31670740	     -2.14260702	     -2.74557735	      0.64759297	      1.03001886	      0.71323472	    -22.82646139	      2.29594570	      6.18664358	      9.44931142	      0.16492160	     14.67531610	      1.86629320	     -7.49999987	     24.59321967	     -1.53447056	     -0.15361325	     21.40888052	      0.37365545	      4.88798794	     -0.95277121	     -7.49999987	    -21.73412409	      1.01813370	      7.92867326	     11.22232070	    -21.53834792	      7.20177369	     39.81098927	     80.49097885	      7.29362906	     -8.24728869	     15.29284776	     18.06660180	     93.43811181
     15.13333330	      5.21072464	     -1.91740786	     -2.53240128	      0.65027057	      1.02856925	      0.71236305	    -22.42128049	      1.91663693	      5.97568949	     11.66889222	      0.20366059	     12.02735926	      0.86643195	     -7.49999987	     24.08483550	     -1.09879397	      0.28007386	     22.38326935	      0.39066175	      3.83278513	     -1.37284923	     -7.49999987	    -21.49714543	      0.58474448	      7.82069660	     10.00037383	    -21.00350750	      6.18307593	     39.40629652	     80.40898363	      7.52972724	     -8.53784273	     16.32726887	     17.79920018	     93.15932062
     15.15000000	      5.11236234	     -1.71634975	     -2.25875875	      0.65247805	      1.02702304	      0.71104078	    -21.55008896	      1.63450376	      5.59254593	     14.48365792	      0.25278752	      9.06501673	     -0.34741501	     -7.49999987	     23.49445097	     -0.70964660	      0.73130264	     23.22796986	      0.40540455	      3.18214638	     -1.75557238	     -7.49999987	    -21.24684653	      0.15368801	      7.98316930	      8.28411229	    -20.37418101	      4.30987947	     39.40695748	     81.35557768	      8.15543448	     -8.93263459	     19.31816534	     17.21088875	     92.93289137
     15.16666670	      5.08267883	     -1.56452598	     -1.96277783	      0.65403388	      1.02579310	      0.71041361	    -20.09358918	      1.38907479	      4.86860870	     18.22569828	      0.31809844	      5.67624412	     -1.45362361	     -7.49999987	     22.71583977	     -0.38918792	      1.13306286	     23.96941833	      0.41834527	      2.93877041	     -2.16340913	     -7.49999987	    -20.99942499	     -0.17366587	      7.43101071	      7.47075004	    -19.57527923	      3.75513573	     38.64749705	     80.82730314	      8.18334065	     -9.30368215	     19.90395893	     17.05590324	     91.32639092
     15.18333330	      5.11601768	     -1.45585497	     -1.74368844	      0.65454347	      1.02665655	      0.71068238	    -17.86169516	      1.11848028	      4.03231628	     23.25595299	      0.40589295	      1.56868529	     -2.85916220	     -7.49999987	     21.71435379	     -0.17649642	      1.33593287	     24.56179386	      0.42868417	      3.12399559	     -2.48236698	     -7.49999987	    -20.84984689	     -0.45770290	      6.89539440	      6.66784219	    -18.83469070	      3.08502416	     38.21968863	     81.41474815	      8.15840057	     -9.85641284	     21.01962830	     17.32467477	     90.80678220
     15.20000000	      4.97298934	     -1.30639584	     -1.73167541	      0.65482515	      1.02938062	      0.71085015	    -14.65924137	      0.66887783	      3.18337513	     29.40335208	      0.51318530	     -3.34770796	     -4.34982009	     -7.49999987	     20.71643074	     -0.01305617	      1.27873336	     24.86058622	      0.43389908	      3.70378086	     -2.71511452	     -7.49999987	    -20.46270257	     -0.87020784	      6.65029611	      5.79043294	    -17.97874604	      1.74989290	     37.69078973	     83.53419096	      8.39222397	    -10.39002452	     22.50026493	     17.22105111	     91.38439307
     15.21666670	      5.13636418	     -0.95574309	     -1.91648408	      0.65612661	      1.03185018	      0.70988058	    -11.37473306	     -0.13074417	      2.43356430	     35.95745777	      0.62757603	     -8.24831972	     -5.57369353	     -7.49999987	     19.12181493	      0.36129742	      1.11135797	     24.63324214	      0.42993118	      4.52160573	     -3.05796717	     -7.49999987	    -20.53904854	     -1.58258993	      6.19976078	      5.23663083	    -17.32753481	      1.64640717	     37.55761769	     83.55484072	      8.48068811	    -10.92672636	     22.40805023	     17.48584084	     91.29640537
     15.23333330	      4.83576865	     -0.70488653	     -2.28402707	      0.65866258	      1.03263823	      0.70799270	     -7.45661608	     -0.78494394	      2.14052529	     42.30273510	      0.73832201	    -12.99945670	     -7.18834565	     -7.49999987	     17.93218321	      0.60005522	      0.85397822	     24.16908013	      0.42183003	      5.48355357	     -3.30453911	     -7.49999987	    -20.08080147	     -2.12833264	      5.88228249	      4.82540617	    -16.62818854	      1.27193707	     36.95819545	     82.41023938	      8.27836016	    -11.52283542	     22.30509753	     18.53311070	     89.49682027
     15.25000000	      4.75975654	     -0.37393199	     -2.74259329	      0.66041439	      1.03418774	      0.70635276	     -3.91958116	     -1.46071574	      2.08813044	     47.92822593	      0.83650535	    -16.45592384	     -8.47839634	     -7.49999987	     16.43329819	      0.92403252	      0.43986178	     23.42253894	      0.40880042	      6.41104978	     -3.43903393	     -7.49999987	    -19.97888751	     -2.82119730	      5.76708018	      4.38243267	    -16.18273738	      1.28028888	     36.67123670	     81.89592918	      8.44074587	    -12.08558887	     22.22229828	     19.44821495	     88.54415917
